<svg xmlns="http://www.w3.org/2000/svg" version="1.1" xmlns:xlink="http://www.w3.org/1999/xlink" width="512" height="512" x="0" y="0" viewBox="0 0 64 64" style="enable-background:new 0 0 512 512" xml:space="preserve" class=""><g><g data-name="16"><path d="M58.35 11.06a1 1 0 0 0-1.18.39L45.94 28.29l-13.15-16.9a1 1 0 0 0-1.58 0l-13.15 16.9L6.83 11.45a1 1 0 0 0-1.18-.39A1 1 0 0 0 5 12.14l4.53 32.55a5 5 0 0 0 5 4.31h35a5 5 0 0 0 4.95-4.31L59 12.14a1 1 0 0 0-.65-1.08zm-5.86 33.35a3 3 0 0 1-3 2.59h-35a3 3 0 0 1-3-2.59l-3.9-28.22 9.58 14.36A1 1 0 0 0 18 31a1 1 0 0 0 .83-.39L32 13.63l13.21 17A1 1 0 0 0 46 31a1 1 0 0 0 .79-.45l9.58-14.36zM50 52H14a1 1 0 0 0 0 2h36a1 1 0 0 0 0-2z" fill="#c084fc" opacity="1" data-original="#000000" class=""></path></g></g></svg>